<?xml version="1.0" standalone="no"?>
<!DOCTYPE svg PUBLIC "-//W3C//DTD SVG 20010904//EN"
 "http://www.w3.org/TR/2001/REC-SVG-20010904/DTD/svg10.dtd">
<svg version="1.0" xmlns="http://www.w3.org/2000/svg"
 width="1280.000000pt" height="1071.000000pt" viewBox="0 0 1280.000000 1071.000000"
 preserveAspectRatio="xMidYMid meet">
<metadata>
Created by potrace 1.15, written by Peter Selinger 2001-2017
</metadata>
<g transform="translate(0.000000,1071.000000) scale(0.100000,-0.100000)"
fill="#ffffff" stroke="none">
<path d="M1643 10662 c-250 -151 -478 -377 -640 -637 -319 -513 -452 -1076
-515 -2180 -14 -239 -19 -2123 -6 -2206 l7 -45 -69 -1 c-122 -2 -229 -43 -311
-120 -160 -150 -138 -406 50 -575 71 -64 141 -102 254 -139 l96 -31 -20 -31
c-21 -35 -24 -81 -9 -121 8 -23 6 -28 -18 -40 -109 -57 -109 -206 -2 -318 l48
-50 -20 -34 c-41 -69 -17 -178 48 -220 19 -13 21 -20 13 -40 -5 -14 -9 -53 -9
-87 0 -76 21 -120 77 -162 38 -29 39 -32 35 -80 -6 -79 -4 -78 -74 -45 -153
73 -288 -1 -288 -156 0 -128 82 -194 253 -202 53 -3 97 -8 97 -13 0 -10 -74
-103 -142 -177 -28 -32 -45 -59 -41 -65 4 -7 35 -53 69 -103 71 -105 89 -162
82 -268 -5 -75 -34 -154 -70 -193 l-20 -22 -36 36 c-92 92 -204 96 -279 10
-55 -62 -69 -166 -34 -236 43 -83 195 -194 304 -222 46 -11 47 -12 31 -31 -10
-10 -75 -62 -145 -115 -70 -54 -126 -99 -125 -101 2 -1 75 -14 162 -27 257
-40 248 -37 273 -103 53 -138 133 -242 186 -242 23 0 25 -4 25 -41 l0 -42 76
104 c81 109 118 179 129 241 4 20 13 39 21 42 8 3 98 17 202 31 103 15 193 28
200 31 7 2 -52 56 -132 120 -80 63 -146 117 -146 119 0 2 30 12 68 24 121 37
257 134 298 213 25 47 24 145 -2 188 -27 47 -81 87 -136 102 -72 19 -131 0
-185 -58 l-43 -45 -26 28 c-50 53 -69 109 -69 208 0 103 17 152 86 242 69 93
66 133 -20 228 -59 65 -109 147 -92 153 5 2 42 -7 81 -19 90 -27 147 -22 204
18 125 88 109 232 -35 305 -30 15 -49 28 -43 28 6 0 31 13 55 29 l43 30 37
-34 c21 -18 49 -41 62 -50 39 -25 47 -65 47 -224 1 -259 15 -443 40 -498 24
-54 70 -107 114 -130 58 -30 126 6 126 67 0 29 31 63 72 79 25 9 34 4 132 -82
58 -51 161 -145 230 -209 134 -125 234 -208 304 -252 56 -35 170 -60 242 -52
72 7 201 62 295 126 146 99 320 259 337 312 3 7 29 -6 64 -29 236 -161 543
-313 630 -313 17 0 25 -8 33 -32 5 -18 43 -136 84 -263 125 -382 161 -525 173
-691 14 -206 -50 -350 -203 -455 -102 -71 -108 -72 -448 -80 -353 -8 -394 -15
-490 -88 -147 -111 -299 -438 -264 -566 13 -45 58 -75 116 -75 49 0 122 27
204 75 l57 33 41 -38 c50 -48 121 -72 211 -72 90 0 161 22 240 73 40 26 68 38
75 33 99 -77 176 -105 287 -105 112 0 193 26 276 88 l32 24 73 -35 c104 -52
184 -70 308 -70 101 -1 107 0 142 27 39 30 122 145 163 227 41 82 45 127 23
303 -11 88 -19 188 -17 224 l3 65 166 63 c264 99 271 103 384 218 124 126 205
243 205 296 0 75 -44 99 -230 126 -178 27 -260 58 -302 117 -51 73 -18 217 91
395 26 43 92 150 145 238 54 88 103 163 109 166 7 4 39 12 72 19 84 17 284 98
750 305 880 390 1163 480 1578 502 l127 6 0 -111 c0 -282 98 -489 440 -932
332 -431 341 -458 359 -1140 l9 -325 -51 -53 c-88 -91 -116 -99 -455 -122
-194 -14 -242 -23 -319 -60 -78 -39 -187 -146 -230 -225 -61 -116 -80 -250
-42 -298 47 -61 188 -50 299 23 30 20 71 46 90 57 l35 22 60 -50 c33 -27 84
-58 113 -69 106 -40 228 -16 316 61 l45 40 39 -39 c50 -50 114 -73 229 -79
139 -8 206 18 265 104 l15 23 82 -49 c111 -67 169 -86 266 -86 65 0 87 4 118
22 l38 23 29 -21 c55 -41 150 -17 293 74 l55 35 53 -52 c62 -59 111 -78 204
-77 79 0 153 28 230 86 33 25 62 45 66 45 3 0 24 -14 45 -31 156 -126 368
-132 491 -14 l44 43 50 -34 c84 -56 196 -87 319 -88 158 -1 210 33 210 138 0
64 -26 124 -108 254 -142 222 -178 320 -169 457 2 44 12 97 20 118 22 52 105
137 217 222 193 146 300 296 300 418 0 105 -56 160 -177 173 -32 4 -74 15 -94
25 -83 41 -178 182 -229 339 -41 127 -53 231 -47 415 8 245 56 463 184 830
215 622 265 790 294 995 22 148 19 771 -3 870 -49 221 -203 522 -393 771 l-35
47 86 72 c220 185 333 346 396 566 20 67 23 102 23 234 0 131 -4 167 -23 234
-84 292 -306 527 -624 661 -201 85 -222 89 -563 89 -326 1 -463 -9 -785 -54
-393 -56 -689 -76 -941 -66 -172 7 -239 21 -329 66 -114 58 -134 85 -160 221
-20 103 -89 169 -163 155 -52 -10 -150 -78 -238 -166 l-79 -78 -30 62 c-66
139 -62 214 15 292 34 33 89 66 227 132 l182 89 -124 77 c-150 92 -219 116
-339 116 -195 0 -380 -91 -477 -234 l-34 -50 -63 64 c-36 37 -76 91 -93 125
-25 52 -29 71 -28 140 0 96 27 158 97 222 132 122 356 150 408 52 5 -7 16 -31
25 -53 30 -66 101 -94 162 -62 92 48 163 238 146 393 l-6 63 28 0 c41 -1 147
-48 234 -104 108 -70 182 -145 216 -219 27 -58 29 -70 29 -187 -1 -157 -14
-194 -148 -414 -54 -88 -95 -161 -94 -163 10 -9 360 72 423 98 194 81 322 207
380 374 25 73 28 93 28 220 0 115 -4 150 -21 198 -11 31 -17 57 -14 57 19 0
121 -69 161 -109 50 -50 111 -150 136 -226 14 -39 15 -56 4 -108 -18 -93 -65
-207 -121 -293 -59 -89 -67 -120 -45 -162 33 -64 121 -65 282 -3 157 61 247
140 309 269 17 34 33 62 36 62 4 0 25 -25 49 -54 120 -157 422 -331 612 -353
43 -5 50 -3 77 25 47 46 37 94 -29 157 -18 17 -42 50 -55 75 -28 56 -77 190
-73 202 2 5 45 -24 95 -65 83 -66 142 -116 437 -370 240 -208 436 -298 679
-314 330 -21 585 183 587 467 0 161 -92 325 -219 387 -76 38 -192 39 -261 4
-122 -63 -189 -156 -199 -276 l-6 -75 -55 26 c-89 41 -232 142 -429 301 -588
475 -1031 759 -1495 957 -279 119 -446 160 -806 197 -187 19 -618 17 -756 -4
-195 -30 -382 -92 -599 -197 -518 -252 -777 -604 -752 -1023 8 -130 36 -236
97 -364 55 -117 84 -162 187 -291 l74 -92 -36 -58 c-58 -95 -77 -156 -83 -267
-2 -57 1 -124 7 -156 30 -142 180 -356 261 -373 66 -13 104 37 121 161 16 119
47 175 111 209 62 32 139 12 513 -131 236 -91 418 -130 710 -155 348 -29 851
6 1288 90 509 97 921 89 1130 -22 136 -73 226 -204 235 -342 9 -147 -40 -267
-158 -387 -104 -106 -182 -143 -482 -230 -323 -93 -392 -99 -1120 -99 -596 0
-706 -6 -953 -51 -261 -48 -401 -53 -990 -40 -286 6 -611 14 -722 18 l-203 6
-84 112 c-46 62 -93 130 -104 152 -22 43 -47 133 -55 201 l-5 42 53 -30 c77
-44 134 -40 160 11 27 51 19 88 -74 340 -11 31 -23 86 -27 123 -6 58 -5 66 10
66 26 0 73 27 80 46 11 30 25 242 37 594 19 574 -7 744 -145 926 l-43 58 84
95 c103 117 164 213 202 317 24 67 70 292 97 479 l7 49 -179 -168 c-101 -96
-196 -177 -219 -187 -53 -24 -182 -26 -228 -3 -18 9 -61 44 -97 78 -36 34 -92
81 -125 103 -127 85 -313 163 -390 163 -59 0 -103 -38 -112 -95 -6 -41 -81
-215 -92 -215 -4 0 -45 35 -93 79 -146 134 -238 186 -395 222 -99 23 -148 21
-189 -6 -42 -27 -56 -70 -64 -196 -4 -67 -13 -125 -19 -133 -18 -21 -51 -6
-141 63 -41 31 -91 67 -111 79 -120 73 -260 86 -574 52 -115 -12 -212 -24
-214 -26 -2 -2 15 -53 39 -113 27 -70 40 -118 37 -133 -11 -41 -101 -142 -157
-176 -81 -48 -138 -62 -305 -72 -141 -9 -254 -28 -294 -50 -37 -19 -181 -50
-306 -65 -71 -8 -142 -18 -157 -21 l-28 -6 0 69 c-1 154 -97 283 -246 328 -66
20 -198 19 -260 -2 -195 -66 -289 -262 -240 -503 24 -117 94 -339 120 -385 39
-67 111 -149 301 -351 94 -99 190 -206 214 -237 53 -72 126 -130 249 -197 53
-29 117 -64 141 -78 l44 -26 -7 60 c-3 32 -9 81 -13 109 l-6 49 39 -30 c95
-75 173 -110 219 -98 32 8 65 58 65 99 1 64 15 56 92 -53 41 -59 112 -151 157
-204 44 -53 81 -99 81 -102 0 -11 -94 -6 -190 9 -259 43 -560 140 -960 309
-265 113 -306 128 -371 129 -70 2 -104 -19 -131 -80 -37 -84 -5 -176 99 -282
l62 -64 -25 -30 c-14 -16 -31 -41 -38 -56 -20 -38 -209 -642 -203 -647 7 -8
327 25 447 45 58 10 106 17 108 15 2 -1 -28 -60 -66 -131 -38 -70 -68 -129
-67 -131 3 -4 291 56 352 74 32 9 82 27 112 40 29 13 57 24 62 24 4 0 22 -21
40 -47 70 -104 121 -143 188 -143 48 0 94 35 113 85 6 19 14 35 18 35 3 0 24
-38 48 -83 24 -46 62 -105 85 -131 93 -109 201 -98 242 24 26 77 122 155 170
136 26 -10 48 -70 41 -111 -10 -52 -106 -144 -247 -237 -62 -41 -161 -105
-218 -143 -553 -362 -911 -873 -1035 -1475 -49 -239 -54 -397 -20 -645 l6 -40
-70 75 c-38 41 -252 252 -476 469 -224 217 -405 397 -404 401 2 4 27 27 57 51
197 160 228 433 68 592 -75 75 -202 127 -310 127 -41 0 -48 3 -43 18 10 35 26
430 36 927 24 1203 62 1981 131 2675 69 704 141 1077 250 1303 21 44 39 92 39
105 0 34 -52 82 -88 82 -17 0 -62 -20 -109 -48z m-419 -7148 c31 -12 15 -19
-42 -20 l-57 -2 35 13 c43 16 44 17 64 9z m9240 -1341 c270 -173 363 -240 447
-325 132 -132 163 -256 176 -689 7 -239 2 -287 -34 -330 -35 -41 -84 -61 -240
-99 -150 -36 -261 -71 -340 -105 -67 -30 -208 -122 -242 -159 -14 -14 -28 -26
-31 -26 -4 0 -10 21 -13 47 -3 27 -22 104 -42 172 -67 238 -46 308 179 590
131 163 214 288 231 346 22 70 -2 136 -60 168 -11 6 -82 14 -158 17 -134 7
-138 8 -175 37 -95 77 -120 181 -69 285 22 43 143 208 153 208 1 0 99 -62 218
-137z"/>
</g>
</svg>
